<svg width="22" height="22" viewBox="0 0 22 22" fill="none" xmlns="http://www.w3.org/2000/svg">
<path d="M4.49562 7.87177C4.65031 7.54521 4.83078 7.23583 5.03703 6.93505L5.00266 4.70068C5.00266 4.49443 5.08859 4.29677 5.25187 4.15927C6.05109 3.48896 6.96203 2.94755 7.9675 2.58661C8.16516 2.51786 8.38 2.53505 8.55187 2.64677L10.4683 3.79833C10.8292 3.77255 11.1902 3.77255 11.5511 3.79833L13.4675 2.64677C13.648 2.54365 13.8628 2.51786 14.0605 2.58661C15.0402 2.93896 15.9597 3.46318 16.7761 4.15068C16.9308 4.27958 17.0253 4.48583 17.0167 4.69208L16.9823 6.92646C17.1886 7.22724 17.3691 7.53661 17.5237 7.86318L19.4745 8.94599C19.655 9.04911 19.7839 9.22099 19.8183 9.42724C19.9987 10.4499 20.0073 11.5155 19.8183 12.5554C19.7839 12.7616 19.655 12.9335 19.4745 13.0366L17.5237 14.1194C17.3691 14.446 17.1886 14.7554 16.9823 15.0561L17.0167 17.2905C17.0167 17.4968 16.9308 17.6944 16.7675 17.8319C15.9683 18.5022 15.0573 19.0436 14.0519 19.4046C13.8542 19.4733 13.6394 19.4561 13.4675 19.3444L11.5511 18.1929C11.1902 18.2186 10.8292 18.2186 10.4683 18.1929L8.55187 19.3444C8.37141 19.4476 8.15656 19.4733 7.95891 19.4046C6.97922 19.0522 6.05969 18.528 5.24328 17.8405C5.08859 17.7116 4.99406 17.5054 5.00266 17.2991L5.03703 15.0647C4.83078 14.764 4.65031 14.4546 4.49562 14.128L2.54484 13.0452C2.36437 12.9421 2.23547 12.7702 2.20109 12.564C2.02062 11.5413 2.01203 10.4757 2.20109 9.43583C2.23547 9.22958 2.36437 9.05771 2.54484 8.95458L4.49562 7.87177Z" stroke="#4B0082" stroke-width="1.5" stroke-miterlimit="10" stroke-linecap="round" stroke-linejoin="round"/>
<path d="M11 15.125C13.2782 15.125 15.125 13.2782 15.125 11C15.125 8.72183 13.2782 6.875 11 6.875C8.72183 6.875 6.875 8.72183 6.875 11C6.875 13.2782 8.72183 15.125 11 15.125Z" stroke="#4B0082" stroke-width="1.5" stroke-miterlimit="10" stroke-linecap="round" stroke-linejoin="round"/>
</svg>
