<svg width="37" height="36" viewBox="0 0 37 36" fill="none" xmlns="http://www.w3.org/2000/svg">
<path d="M34.7461 16.875H25.7461V11.25H31.7344C31.9593 11.25 32.179 11.3174 32.3651 11.4434C32.5513 11.5695 32.6955 11.7484 32.779 11.9572L34.7461 16.875Z" stroke="#263238" stroke-width="2.26293" stroke-linecap="round" stroke-linejoin="round"/>
<path d="M3.24219 20.2502H25.7422" stroke="#263238" stroke-width="2.26293" stroke-linecap="round" stroke-linejoin="round"/>
<path d="M27.4336 30.375C29.2976 30.375 30.8086 28.864 30.8086 27C30.8086 25.136 29.2976 23.625 27.4336 23.625C25.5696 23.625 24.0586 25.136 24.0586 27C24.0586 28.864 25.5696 30.375 27.4336 30.375Z" stroke="#263238" stroke-width="2.26293" stroke-linecap="round" stroke-linejoin="round"/>
<path d="M10.5547 30.375C12.4186 30.375 13.9297 28.864 13.9297 27C13.9297 25.136 12.4186 23.625 10.5547 23.625C8.69073 23.625 7.17969 25.136 7.17969 27C7.17969 28.864 8.69073 30.375 10.5547 30.375Z" stroke="#263238" stroke-width="2.26293" stroke-linecap="round" stroke-linejoin="round"/>
<path d="M24.0547 27.0002H13.9297" stroke="#263238" stroke-width="2.26293" stroke-linecap="round" stroke-linejoin="round"/>
<path d="M7.17969 27.0005H4.36719C4.06882 27.0005 3.78267 26.882 3.57169 26.671C3.36071 26.46 3.24219 26.1739 3.24219 25.8755V10.1255C3.24219 9.82712 3.36071 9.54097 3.57169 9.32999C3.78267 9.11901 4.06882 9.00049 4.36719 9.00049H25.7422V24.0776" stroke="#263238" stroke-width="2.26293" stroke-linecap="round" stroke-linejoin="round"/>
<path d="M25.7461 24.0774V16.8752H34.7461V25.8752C34.7461 26.1736 34.6276 26.4598 34.4166 26.6707C34.2056 26.8817 33.9195 27.0002 33.6211 27.0002H30.8086" stroke="#263238" stroke-width="2.26293" stroke-linecap="round" stroke-linejoin="round"/>
</svg>
