<svg width="56" height="56" viewBox="0 0 56 56" fill="none" xmlns="http://www.w3.org/2000/svg">
<circle cx="27.7363" cy="27.7363" r="27.7363" fill="#4B0082"/>
<path d="M37.9619 29.4083L24.2828 37.6044C24.0824 37.7244 23.8478 37.7947 23.6045 37.8075C23.3612 37.8204 23.1185 37.7754 22.9026 37.6774C22.6868 37.5795 22.506 37.4322 22.38 37.2517C22.2539 37.0711 22.1873 36.8642 22.1875 36.6532V20.2634C22.1873 20.0524 22.2539 19.8455 22.38 19.6649C22.506 19.4844 22.6868 19.3372 22.9026 19.2392C23.1185 19.1412 23.3612 19.0962 23.6045 19.1091C23.8478 19.122 24.0824 19.1922 24.2828 19.3123L37.9619 27.5083C38.1393 27.6147 38.2842 27.7567 38.3844 27.9221C38.4845 28.0876 38.5368 28.2715 38.5368 28.4583C38.5368 28.6451 38.4845 28.8291 38.3844 28.9945C38.2842 29.1599 38.1393 29.3019 37.9619 29.4083Z" fill="white"/>
</svg>
