<svg width="16" height="20" viewBox="0 0 17 19" fill="none" xmlns="http://www.w3.org/2000/svg">
<path d="M15.9619 10.4083L2.28283 18.6044C2.08238 18.7244 1.8478 18.7947 1.6045 18.8075C1.36121 18.8204 1.11848 18.7754 0.902618 18.6774C0.68676 18.5795 0.506007 18.4322 0.37995 18.2517C0.253893 18.0711 0.187339 17.8642 0.1875 17.6532V1.26338C0.187339 1.05244 0.253893 0.845488 0.37995 0.664948C0.506007 0.484407 0.68676 0.337166 0.902618 0.239183C1.11848 0.141199 1.36121 0.0962098 1.6045 0.109091C1.8478 0.121971 2.08238 0.192231 2.28283 0.312255L15.9619 8.50834C16.1393 8.6147 16.2842 8.75668 16.3844 8.92212C16.4845 9.08757 16.5368 9.27155 16.5368 9.45831C16.5368 9.64507 16.4845 9.82905 16.3844 9.9945C16.2842 10.1599 16.1393 10.3019 15.9619 10.4083Z" fill="white"/>
</svg>
