<svg width="40" height="40" viewBox="0 0 40 40" fill="none" xmlns="http://www.w3.org/2000/svg">
<g clip-path="url(#clip0_983_178)">
<path d="M20 40C31.0457 40 40 31.0457 40 20C40 8.9543 31.0457 0 20 0C8.9543 0 0 8.9543 0 20C0 31.0457 8.9543 40 20 40Z" fill="#039BE5"/>
<path d="M9.15113 19.5665L28.4345 12.1315C29.3295 11.8082 30.1111 12.3499 29.8211 13.7032L29.8228 13.7015L26.5395 29.1699C26.2961 30.2665 25.6445 30.5332 24.7328 30.0165L19.7328 26.3315L17.3211 28.6549C17.0545 28.9215 16.8295 29.1465 16.3128 29.1465L16.6678 24.0582L25.9345 15.6865C26.3378 15.3315 25.8445 15.1315 25.3128 15.4849L13.8611 22.6949L8.92446 21.1549C7.85279 20.8149 7.82946 20.0832 9.15113 19.5665Z" fill="white"/>
</g>
<defs>
<clipPath id="clip0_983_178">
<rect width="40" height="40" fill="white"/>
</clipPath>
</defs>
</svg>
