<svg width="40" height="40" viewBox="0 0 40 40" fill="none" xmlns="http://www.w3.org/2000/svg">
<g clip-path="url(#clip0_983_181)">
<path d="M20 40C31.0457 40 40 31.0457 40 20C40 8.95431 31.0457 0 20 0C8.95431 0 0 8.95431 0 20C0 31.0457 8.95431 40 20 40Z" fill="#4CAF50"/>
<path d="M20.0008 9.47363C18.0616 9.47437 16.1602 10.0108 14.5065 11.0238C12.8529 12.0367 11.5112 13.4868 10.6294 15.214C9.74773 16.9412 9.3603 18.8784 9.50988 20.8119C9.65947 22.7454 10.3403 24.6 11.4771 26.171L10.1614 30.0815L14.2114 28.7868C15.5815 29.6906 17.1439 30.2614 18.774 30.4537C20.404 30.6461 22.0564 30.4546 23.5993 29.8945C25.1421 29.3344 26.5326 28.4213 27.6597 27.2282C28.7867 26.035 29.6192 24.5947 30.0905 23.0225C30.5618 21.4503 30.6589 19.7897 30.3741 18.1732C30.0892 16.5568 29.4303 15.0293 28.45 13.7129C27.4697 12.3965 26.1951 11.3276 24.7281 10.5915C23.261 9.85541 21.6422 9.4726 20.0008 9.47363ZM25.5956 24.3605L24.4745 25.4815C23.2956 26.6605 20.1693 25.3631 17.3982 22.5868C14.6271 19.8105 13.385 16.6921 14.5061 15.5263L15.6271 14.4052C15.8442 14.2057 16.1283 14.0949 16.4232 14.0949C16.7181 14.0949 17.0022 14.2057 17.2193 14.4052L18.8719 16.0526C19.0066 16.1836 19.1055 16.347 19.159 16.5272C19.2125 16.7074 19.2188 16.8983 19.1773 17.0816C19.1358 17.2649 19.048 17.4345 18.9222 17.5741C18.7963 17.7137 18.6368 17.8187 18.4587 17.8789C18.1961 17.9628 17.9759 18.1448 17.8441 18.3869C17.7122 18.6291 17.6788 18.9127 17.7508 19.1789C18.0456 20.4157 19.6377 21.95 20.8193 22.2447C21.084 22.3002 21.3599 22.2584 21.5963 22.127C21.8327 21.9955 22.0137 21.7831 22.1061 21.5289C22.1657 21.3483 22.271 21.1862 22.4119 21.0585C22.5528 20.9307 22.7244 20.8417 22.91 20.8001C23.0956 20.7585 23.2888 20.7657 23.4707 20.821C23.6527 20.8763 23.8172 20.9779 23.9482 21.1157L25.5982 22.7684C25.7974 22.9858 25.9077 23.2701 25.9072 23.5649C25.9067 23.8598 25.7955 24.1437 25.5956 24.3605Z" fill="white"/>
</g>
<defs>
<clipPath id="clip0_983_181">
<rect width="40" height="40" fill="white"/>
</clipPath>
</defs>
</svg>
