<?xml version="1.0" encoding="UTF-8"?> <svg xmlns="http://www.w3.org/2000/svg" width="32" height="32" viewBox="0 0 32 32" fill="none"><path d="M26 5H6C5.44772 5 5 5.44772 5 6V26C5 26.5523 5.44772 27 6 27H26C26.5523 27 27 26.5523 27 26V6C27 5.44772 26.5523 5 26 5Z" stroke="#4B0082" stroke-width="3" stroke-linecap="round" stroke-linejoin="round"></path><path d="M4.99927 19.5H9.58505C9.71638 19.5 9.84641 19.5259 9.96774 19.5761C10.0891 19.6264 10.1993 19.7 10.2922 19.7929L12.7064 22.2071C12.7992 22.3 12.9095 22.3736 13.0308 22.4239C13.1521 22.4741 13.2822 22.5 13.4135 22.5H18.5851C18.7164 22.5 18.8464 22.4741 18.9677 22.4239C19.0891 22.3736 19.1993 22.3 19.2922 22.2071L21.7064 19.7929C21.7992 19.7 21.9095 19.6264 22.0308 19.5761C22.1521 19.5259 22.2822 19.5 22.4135 19.5H26.9993" stroke="#4B0082" stroke-width="3" stroke-linecap="round" stroke-linejoin="round"></path></svg> 